<?xml version="1.0" encoding="UTF-8"?><svg id="Layer_1" xmlns="http://www.w3.org/2000/svg" viewBox="0 0 446.12 230.33"><defs><style>.cls-1{fill:#f68d39;}.cls-2{fill:#56c7da;}</style></defs><g><path class="cls-2" d="M28.53,162.55h-8.15v-7.08h24.09v7.08h-8.15v42.51h-7.79v-42.51Z"/><path class="cls-2" d="M48.22,155.47h7.79v20.19h8.36v-20.19h7.79v49.59h-7.79v-22.32h-8.36v22.32h-7.79v-49.59Z"/><path class="cls-2" d="M77.97,155.47h21.25v7.08h-13.46v13.11h10.7v7.08h-10.7v15.23h13.46v7.08h-21.25v-49.59Z"/></g><g><path class="cls-2" d="M124.43,200.42c-3.23-3.45-4.84-8.33-4.84-14.63v-41.41c0-6.3,1.61-11.18,4.84-14.63,3.22-3.45,7.88-5.18,13.95-5.18s10.73,1.73,13.95,5.18c3.22,3.45,4.84,8.33,4.84,14.63v41.41c0,6.3-1.61,11.18-4.84,14.63-3.23,3.45-7.88,5.18-13.95,5.18s-10.73-1.72-13.95-5.18Zm20.37-13.84v-42.98c0-5.18-2.14-7.76-6.41-7.76s-6.41,2.59-6.41,7.76v42.98c0,5.18,2.14,7.76,6.41,7.76s6.41-2.59,6.41-7.76Z"/><path class="cls-2" d="M165.49,125.71h18.9c6.15,0,10.76,1.65,13.84,4.95,3.08,3.3,4.61,8.14,4.61,14.51v39.83c0,6.38-1.54,11.21-4.61,14.51-3.08,3.3-7.69,4.95-13.84,4.95h-18.9V125.71Zm18.68,67.51c2.03,0,3.58-.6,4.67-1.8,1.09-1.2,1.63-3.15,1.63-5.85v-40.96c0-2.7-.54-4.65-1.63-5.85-1.09-1.2-2.64-1.8-4.67-1.8h-6.3v56.26h6.3Z"/><path class="cls-2" d="M211.17,125.71h18.9c6.15,0,10.76,1.65,13.84,4.95,3.08,3.3,4.61,8.14,4.61,14.51v39.83c0,6.38-1.54,11.21-4.61,14.51-3.08,3.3-7.69,4.95-13.84,4.95h-18.9V125.71Zm18.68,67.51c2.03,0,3.58-.6,4.67-1.8,1.09-1.2,1.63-3.15,1.63-5.85v-40.96c0-2.7-.54-4.65-1.63-5.85-1.09-1.2-2.64-1.8-4.67-1.8h-6.3v56.26h6.3Z"/><path class="cls-2" d="M259.33,200.47c-3.08-3.41-4.61-8.31-4.61-14.68v-4.5h11.7v5.4c0,5.1,2.14,7.65,6.41,7.65,2.1,0,3.69-.62,4.78-1.86,1.09-1.24,1.63-3.24,1.63-6.02,0-3.3-.75-6.21-2.25-8.72-1.5-2.51-4.28-5.53-8.33-9.06-5.1-4.5-8.66-8.57-10.69-12.21-2.03-3.64-3.04-7.75-3.04-12.32,0-6.23,1.58-11.04,4.73-14.46,3.15-3.41,7.73-5.12,13.73-5.12s10.41,1.71,13.45,5.12c3.04,3.41,4.56,8.31,4.56,14.68v3.26h-11.7v-4.05c0-2.7-.53-4.67-1.58-5.91-1.05-1.24-2.59-1.86-4.61-1.86-4.13,0-6.19,2.51-6.19,7.54,0,2.85,.77,5.51,2.31,7.99,1.54,2.48,4.33,5.48,8.38,9,5.18,4.5,8.74,8.59,10.69,12.26,1.95,3.68,2.92,7.99,2.92,12.94,0,6.45-1.59,11.4-4.78,14.85-3.19,3.45-7.82,5.18-13.9,5.18s-10.54-1.71-13.61-5.12Z"/></g><rect class="cls-1" x="20.38" y="126.02" width="79.23" height="7.17"/><g><path class="cls-1" d="M20.58,21.53h18.34c6.38,0,11.03,1.48,13.95,4.44,2.92,2.96,4.39,7.52,4.39,13.67v4.84c0,8.18-2.7,13.35-8.1,15.53v.22c3,.9,5.12,2.74,6.36,5.51,1.24,2.78,1.86,6.49,1.86,11.14v13.84c0,2.25,.07,4.07,.23,5.46,.15,1.39,.52,2.76,1.12,4.11h-12.6c-.45-1.27-.75-2.48-.9-3.6-.15-1.12-.23-3.15-.23-6.08v-14.4c0-3.6-.58-6.11-1.74-7.54-1.16-1.42-3.17-2.14-6.02-2.14h-4.28v33.75h-12.38V21.53Zm16.88,33.76c2.47,0,4.33-.64,5.57-1.91,1.24-1.27,1.86-3.41,1.86-6.41v-6.08c0-2.85-.51-4.91-1.52-6.19-1.01-1.27-2.61-1.91-4.78-1.91h-5.63v22.5h4.5Z"/><path class="cls-1" d="M65.92,21.53h33.75v11.25h-21.38v20.82h16.99v11.25h-16.99v24.19h21.38v11.25h-33.75V21.53Z"/></g><g><path class="cls-2" d="M109.4,96.3c-3.08-3.41-4.61-8.31-4.61-14.68v-4.5h11.7v5.4c0,5.1,2.14,7.65,6.41,7.65,2.1,0,3.69-.62,4.78-1.86,1.09-1.24,1.63-3.24,1.63-6.02,0-3.3-.75-6.21-2.25-8.72-1.5-2.51-4.28-5.53-8.33-9.06-5.1-4.5-8.66-8.57-10.69-12.21-2.03-3.64-3.04-7.75-3.04-12.32,0-6.23,1.58-11.04,4.73-14.46,3.15-3.41,7.73-5.12,13.73-5.12s10.41,1.71,13.45,5.12c3.04,3.41,4.56,8.31,4.56,14.68v3.26h-11.7v-4.05c0-2.7-.53-4.67-1.58-5.91-1.05-1.24-2.59-1.86-4.61-1.86-4.13,0-6.19,2.51-6.19,7.54,0,2.85,.77,5.51,2.31,7.99,1.54,2.48,4.33,5.48,8.38,9,5.18,4.5,8.74,8.59,10.69,12.26,1.95,3.68,2.92,7.99,2.92,12.94,0,6.45-1.59,11.4-4.78,14.85-3.19,3.45-7.82,5.18-13.9,5.18s-10.54-1.71-13.61-5.12Z"/><path class="cls-2" d="M158.46,32.78h-12.94v-11.25h38.26v11.25h-12.94V100.3h-12.38V32.78Z"/><path class="cls-2" d="M194.13,21.53h16.77l12.83,78.76h-12.38l-2.25-15.64v.22h-14.06l-2.25,15.42h-11.48l12.83-78.76Zm13.5,52.66l-5.51-38.93h-.22l-5.4,38.93h11.14Z"/><path class="cls-2" d="M233.34,96.36c-3.11-3.38-4.67-8.14-4.67-14.29V39.76c0-6.15,1.56-10.91,4.67-14.29,3.11-3.38,7.63-5.06,13.56-5.06s10.44,1.69,13.56,5.06c3.11,3.38,4.67,8.14,4.67,14.29v8.33h-11.7v-9.11c0-4.88-2.06-7.31-6.19-7.31s-6.19,2.44-6.19,7.31v43.99c0,4.8,2.06,7.2,6.19,7.2s6.19-2.4,6.19-7.2v-12.04h11.7v11.14c0,6.15-1.56,10.91-4.67,14.29-3.11,3.38-7.63,5.06-13.56,5.06s-10.45-1.69-13.56-5.06Z"/><path class="cls-2" d="M272.55,21.53h12.38V54.73l15.75-33.19h12.38l-14.74,28.92,14.96,49.85h-12.94l-10.46-35.11-4.95,10.01v25.09h-12.38V21.53Z"/><path class="cls-2" d="M319.13,21.53h12.38V100.3h-12.38V21.53Z"/><path class="cls-2" d="M340.73,21.53h15.53l12.04,47.15h.23V21.53h11.03V100.3h-12.71l-14.85-57.5h-.23v57.5h-11.03V21.53Z"/><path class="cls-2" d="M392.6,96.3c-3.15-3.41-4.73-8.31-4.73-14.68V40.21c0-6.38,1.58-11.27,4.73-14.68,3.15-3.41,7.73-5.12,13.73-5.12s10.58,1.71,13.73,5.12c3.15,3.41,4.73,8.31,4.73,14.68v6.75h-11.7v-7.54c0-5.18-2.14-7.76-6.41-7.76s-6.41,2.59-6.41,7.76v43.09c0,5.1,2.14,7.65,6.41,7.65s6.41-2.55,6.41-7.65v-15.42h-6.19v-11.25h17.89v25.77c0,6.38-1.58,11.27-4.73,14.68-3.15,3.41-7.73,5.12-13.73,5.12s-10.58-1.71-13.73-5.12Z"/></g></svg>